<svg width="65" height="65" viewBox="0 0 65 65" fill="none" xmlns="http://www.w3.org/2000/svg">
<path d="M32.5001 59.2137C35.4334 59.2137 37.8334 56.7913 37.8334 53.8307H27.1667C27.1667 56.7913 29.5667 59.2137 32.5001 59.2137ZM48.5001 43.0645V29.6069C48.5001 21.3438 44.1534 14.4266 36.5001 12.5964V10.7661C36.5001 8.53215 34.7134 6.72882 32.5001 6.72882C30.2867 6.72882 28.5001 8.53215 28.5001 10.7661V12.5964C20.8734 14.4266 16.5001 21.3169 16.5001 29.6069V43.0645L11.1667 48.4476V51.1391H53.8334V48.4476L48.5001 43.0645ZM43.1667 45.7561H21.8334V29.6069C21.8334 22.9319 25.8601 17.495 32.5001 17.495C39.1401 17.495 43.1667 22.9319 43.1667 29.6069V45.7561Z" fill="black" fill-opacity="0.54"/>
</svg>
